<svg width="516" height="147" viewBox="0 0 516 147" fill="none" xmlns="http://www.w3.org/2000/svg">
<path d="M23.4283 112.371C25.8631 112.396 28.288 112.06 30.6237 111.375C32.6879 110.768 34.6406 109.834 36.4066 108.609C38.0473 107.457 39.519 106.084 40.7793 104.528C42.0115 103.004 43.0658 101.346 43.9219 99.586L34.803 95.689C33.8018 97.8767 32.2091 99.7443 30.2034 101.083C28.2356 102.377 25.8557 103.025 23.0635 103.025C21.383 103.029 19.7209 102.673 18.1904 101.982C16.6469 101.29 15.2546 100.303 14.0913 99.079C12.8706 97.7841 11.9122 96.2669 11.2689 94.6106C10.5473 92.7306 10.1918 90.7311 10.2212 88.7187C10.1916 86.7057 10.547 84.7051 11.2689 82.8246C11.91 81.1611 12.8684 79.637 14.0913 78.3364C15.2546 77.1118 16.6469 76.1258 18.1904 75.4335C19.7209 74.7421 21.383 74.3865 23.0635 74.3906C25.8574 74.3906 28.1644 75.0252 29.9853 76.2948C31.8062 77.5641 33.2334 79.3474 34.2668 81.6442L43.5572 77.7472C42.8018 76.0106 41.8214 74.3797 40.6414 72.896C39.4059 71.3339 37.9487 69.9592 36.3154 68.8152C34.5624 67.595 32.6253 66.6607 30.577 66.0474C28.2578 65.3598 25.848 65.0239 23.4283 65.051C20.2142 65.0169 17.0252 65.619 14.0468 66.8224C11.2725 67.947 8.76075 69.6295 6.6693 71.7645C4.57264 73.9287 2.93167 76.4883 1.84282 79.2927C0.669367 82.2983 0.0821002 85.4987 0.112315 88.7231C0.0823748 91.9466 0.669642 95.1465 1.84282 98.1513C2.93167 100.956 4.57264 103.515 6.6693 105.679C8.76102 107.808 11.2711 109.484 14.0424 110.604C17.0224 111.806 20.2131 112.407 23.4283 112.371ZM61.3174 110.921V87.7997C61.3084 86.1 61.6015 84.4119 62.1827 82.8133C62.7172 81.312 63.5366 79.9267 64.5958 78.7326C65.605 77.5999 66.8276 76.6751 68.1944 76.0115C69.5997 75.3365 71.1429 74.9947 72.7028 75.0128C73.6944 74.9985 74.6852 75.0724 75.6634 75.234C76.4297 75.3712 77.1766 75.6001 77.8875 75.9161L80.801 66.5766C79.9025 66.1355 78.9554 65.8004 77.9787 65.578C76.7516 65.3165 75.4988 65.1947 74.2443 65.2149C72.9616 65.2253 71.6873 65.4246 70.4633 65.8061C69.1572 66.1989 67.9033 66.7468 66.7287 67.438C65.5506 68.1288 64.4774 68.9832 63.5415 69.9754C62.6359 70.9266 61.8855 72.0128 61.3174 73.1949H60.7703V66.4903H51.2063V110.921H61.3174ZM106.857 112.371C111.899 112.371 116.149 111.222 119.609 108.925C122.95 106.755 125.7 103.796 127.616 100.312L118.964 96.0501C117.783 98.0685 116.203 99.8276 114.32 101.22C112.436 102.608 110.038 103.302 107.124 103.304C105.61 103.294 104.106 103.051 102.667 102.582C101.152 102.098 99.7452 101.329 98.5234 100.315C97.2315 99.2302 96.1641 97.9056 95.3807 96.4153C94.4853 94.6961 93.9554 92.8117 93.8238 90.8798H128.161C128.161 90.6355 128.192 90.3925 128.252 90.1557C128.256 89.8811 128.286 89.6074 128.343 89.3387V88.5238C128.377 85.2891 127.869 82.071 126.839 79.0028C125.929 76.2536 124.456 73.722 122.513 71.5674C120.598 69.489 118.253 67.8496 115.638 66.7626C112.937 65.6142 109.855 65.04 106.393 65.04C102.991 65.04 99.8943 65.6747 97.1022 66.9442C94.3952 68.1511 91.9631 69.8936 89.9538 72.0656C87.95 74.2585 86.3887 76.8142 85.3539 79.5939C84.253 82.5066 83.6976 85.5955 83.7149 88.7077C83.6764 91.9471 84.264 95.1635 85.4451 98.1823C86.5425 100.968 88.1829 103.51 90.2716 105.662C92.3543 107.79 94.8519 109.472 97.6114 110.604C100.544 111.803 103.688 112.404 106.857 112.371ZM94.471 83.1766C95.1975 80.2729 96.6061 77.9607 98.697 76.2393C100.788 74.5182 103.292 73.6569 106.21 73.6555C108.336 73.6555 110.143 73.9875 111.63 74.6517C112.981 75.2261 114.216 76.0401 115.274 77.0544C116.173 77.9316 116.886 78.9808 117.369 80.1386C117.782 81.1117 118.073 82.132 118.234 83.1766H94.471ZM156.586 112.371C161.627 112.371 165.878 111.222 169.337 108.925C172.678 106.755 175.429 103.796 177.344 100.312L168.692 96.0501C167.511 98.0691 165.931 99.8284 164.045 101.22C162.164 102.608 159.766 103.302 156.85 103.304C155.337 103.294 153.835 103.051 152.397 102.582C150.882 102.099 149.475 101.329 148.254 100.315C146.962 99.2302 145.895 97.9056 145.111 96.4153C144.216 94.6961 143.686 92.8117 143.554 90.8798H177.9C177.9 90.6355 177.93 90.3923 177.991 90.1557C177.994 89.8811 178.024 89.6071 178.082 89.3387V88.5238C178.116 85.2891 177.607 82.0713 176.579 79.0028C175.666 76.2544 174.193 73.7231 172.253 71.5674C170.337 69.4885 167.991 67.849 165.376 66.7626C162.674 65.6142 159.593 65.04 156.132 65.04C152.732 65.04 149.635 65.6747 146.841 66.9442C144.134 68.1516 141.701 69.894 139.691 72.0656C137.689 74.2596 136.127 76.815 135.091 79.5939C133.991 82.5069 133.436 85.5957 133.452 88.7077C133.415 91.9469 134.002 95.1632 135.182 98.1823C136.28 100.968 137.922 103.51 140.011 105.662C142.094 107.79 144.591 109.472 147.351 110.604C150.279 111.802 153.42 112.403 156.586 112.371ZM144.199 83.1766C144.929 80.2729 146.337 77.9607 148.425 76.2393C150.513 74.5182 153.02 73.6569 155.945 73.6555C158.068 73.6555 159.874 73.9875 161.363 74.6517C162.714 75.2261 163.948 76.0401 165.006 77.0544C165.906 77.9316 166.619 78.9808 167.102 80.1386C167.517 81.1111 167.808 82.1318 167.967 83.1766H144.199ZM204.493 112.371C207.954 112.371 210.932 111.661 213.42 110.241C215.909 108.821 217.763 107.143 218.98 105.208H219.527V110.921H229.091V46H218.977V72.2051C217.76 70.2699 215.909 68.5923 213.415 67.1722C210.924 65.7522 207.949 65.0422 204.49 65.0422C201.675 65.0349 198.892 65.6395 196.338 66.8135C193.764 67.9873 191.457 69.6685 189.553 71.7557C187.562 73.9485 185.988 76.4828 184.908 79.2353C182.601 85.3435 182.601 92.0782 184.908 98.1867C185.988 100.939 187.562 103.474 189.553 105.666C191.457 107.752 193.767 109.432 196.343 110.604C198.898 111.777 201.68 112.38 204.493 112.371ZM206.408 103.025C204.688 103.032 202.982 102.692 201.398 102.026C199.832 101.371 198.423 100.398 197.255 99.1697C196.027 97.8644 195.052 96.3425 194.385 94.6815C192.926 90.8246 192.926 86.5708 194.385 82.7138C195.052 81.0529 196.027 79.5307 197.255 78.2256C198.423 76.9969 199.832 76.0241 201.398 75.3692C202.977 74.7102 204.672 74.3709 206.386 74.3709C208.097 74.3709 209.792 74.7102 211.371 75.3692C212.945 76.0142 214.368 76.9733 215.552 78.188C216.794 79.4834 217.769 81.0081 218.422 82.6762C219.881 86.5653 219.881 90.8479 218.422 94.737C217.769 96.4048 216.794 97.9295 215.552 99.2252C214.368 100.436 212.942 101.393 211.371 102.035C209.8 102.689 208.111 103.026 206.408 103.025ZM245.479 110.912V85.9862C245.46 83.9337 245.797 81.8935 246.481 79.9572C247.083 78.2322 247.976 76.6221 249.124 75.1967C250.17 73.9042 251.472 72.8394 252.947 72.0678C254.351 71.3262 255.914 70.937 257.504 70.9342C259.628 70.9342 261.298 71.2368 262.512 71.842L264.333 66.4017C263.498 65.9834 262.611 65.6781 261.693 65.4939C260.551 65.293 259.392 65.2018 258.23 65.2215C256.944 65.2335 255.67 65.4479 254.45 65.857C253.121 66.2916 251.862 66.9183 250.714 67.7169C249.528 68.5367 248.454 69.5124 247.528 70.6176C246.611 71.696 245.913 72.9433 245.476 74.2887H245.114V66.4903H239.653V110.921L245.479 110.912ZM289.928 112.362C293.04 112.397 296.128 111.78 298.99 110.553C301.687 109.39 304.121 107.694 306.14 105.566C308.175 103.4 309.769 100.86 310.829 98.0869C313.079 92.0304 313.079 85.3737 310.829 79.3172C309.769 76.5443 308.175 74.004 306.14 71.8376C304.121 69.7102 301.687 68.0137 298.99 66.8512C296.133 65.6543 293.068 65.0377 289.972 65.0377C286.874 65.0377 283.808 65.6543 280.954 66.8512C278.257 68.0143 275.826 69.7107 273.807 71.8376C271.769 74.0084 270.176 76.5545 269.115 79.3326C266.868 85.3891 266.868 92.0461 269.115 98.1026C270.176 100.875 271.769 103.416 273.807 105.582C275.826 107.703 278.26 109.395 280.954 110.553C283.786 111.777 286.841 112.396 289.928 112.371V112.362ZM289.928 107.103C287.764 107.108 285.621 106.66 283.641 105.79C281.638 104.912 279.828 103.649 278.315 102.073C276.719 100.395 275.466 98.4236 274.626 96.2691C272.804 91.3843 272.804 86.011 274.626 81.1262C275.466 78.9717 276.719 77.0008 278.315 75.3228C279.828 73.7468 281.638 72.4834 283.641 71.6051C285.624 70.7391 287.764 70.292 289.928 70.292C292.09 70.292 294.232 70.7391 296.213 71.6051C298.221 72.4821 300.034 73.7454 301.55 75.3228C303.151 77.006 304.418 78.9747 305.286 81.1262C307.167 85.9997 307.167 91.3956 305.286 96.2691C304.418 98.4203 303.151 100.389 301.55 102.073C300.034 103.65 298.221 104.913 296.213 105.79C294.232 106.663 292.093 107.114 289.928 107.112V107.103ZM340.385 112.362C343.5 112.397 346.587 111.78 349.45 110.553C352.147 109.39 354.578 107.693 356.597 105.566C358.635 103.4 360.228 100.86 361.288 98.0869C363.535 92.0304 363.535 85.3737 361.288 79.3172C360.228 76.5443 358.635 74.004 356.597 71.8376C354.578 69.7123 352.147 68.0174 349.45 66.8556C346.587 65.6268 343.5 65.0091 340.385 65.0422C337.3 65.015 334.246 65.6328 331.414 66.8556C328.716 68.0181 326.283 69.7146 324.264 71.842C322.226 74.0117 320.632 76.5559 319.575 79.3326C317.328 85.3896 317.328 92.0455 319.575 98.1026C320.635 100.875 322.228 103.416 324.264 105.582C326.285 107.704 328.719 109.395 331.414 110.553C334.243 111.777 337.3 112.397 340.385 112.371V112.362ZM340.385 107.103C338.223 107.11 336.081 106.666 334.103 105.799C332.095 104.922 330.279 103.659 328.763 102.081C327.167 100.404 325.915 98.4327 325.077 96.2779C323.253 91.3937 323.253 86.0195 325.077 81.135C325.915 78.9802 327.167 77.009 328.763 75.3316C330.279 73.7542 332.095 72.4906 334.103 71.6139C336.083 70.748 338.223 70.3009 340.388 70.3009C342.549 70.3009 344.689 70.748 346.67 71.6139C348.68 72.4904 350.493 73.7539 352.01 75.3316C353.608 77.0148 354.877 78.9838 355.743 81.135C357.627 86.0085 357.627 91.4044 355.743 96.2779C354.877 98.4294 353.608 100.398 352.01 102.081C350.493 103.659 348.68 104.923 346.67 105.799C344.692 106.669 342.549 107.116 340.385 107.112V107.103ZM376.91 110.912V87.709C376.901 85.5127 377.226 83.3277 377.866 81.2257C378.459 79.2292 379.382 77.3449 380.599 75.6504C381.73 74.0639 383.189 72.7348 384.878 71.7512C386.581 70.7752 388.515 70.2742 390.479 70.3009C394.187 70.3009 396.904 71.4339 398.632 73.6998C400.359 75.9656 401.225 79.3658 401.227 83.9004V110.914H407.056V87.0825C407.051 84.9455 407.372 82.8207 408.012 80.7808C408.603 78.8522 409.526 77.0417 410.745 75.4313C411.902 73.9138 413.36 72.6487 415.028 71.7136C416.709 70.774 418.607 70.2899 420.535 70.3098C424.361 70.3098 427.125 71.4427 428.822 73.7086C430.523 75.9744 431.374 79.3141 431.374 83.7279V110.921H437.203V82.7226C437.222 80.3381 436.931 77.961 436.338 75.6504C435.827 73.6102 434.895 71.6978 433.604 70.033C432.346 68.4483 430.72 67.1884 428.869 66.3596C426.957 65.4858 424.663 65.0481 421.994 65.0466C418.167 65.0466 414.887 66.0282 412.157 67.9915C409.493 69.8782 407.334 72.3873 405.872 75.2983C405.073 72.4062 403.386 69.8345 401.049 67.9428C398.678 66.0076 395.638 65.0407 391.929 65.0422C390.306 65.0399 388.691 65.3001 387.15 65.8127C385.625 66.3131 384.183 67.0305 382.868 67.9428C381.574 68.8379 380.395 69.8888 379.363 71.0715C378.363 72.2003 377.533 73.4684 376.901 74.8356H376.536V66.4903H371.078V110.921L376.91 110.912ZM480.111 110.912V105.662H452.412L479.738 71.3881V66.4903H446.039V71.749H472.632L445.312 106.025V110.921L480.111 110.912Z" fill="#DFB979"/>
<path d="M87.4708 145.588H75.9608V125.18H78.5941V143.079H87.4708V145.588Z" fill="#DFB979"/>
<path d="M107.743 145.588H105.108V125.18H107.743V145.588Z" fill="#DFB979"/>
<path d="M133.855 145.588H131.106L123.89 125.18H126.806L132.42 141.74H132.533L138.372 125.18H141.292L133.855 145.588Z" fill="#DFB979"/>
<path d="M170.565 125.18V127.688H161.224V134.158H169.642V136.609H161.224V143.079H170.565V145.588H158.597V125.18H170.565Z" fill="#DFB979"/>
<path d="M219.269 146.038C216.233 146.038 213.695 145.022 211.652 142.989C209.611 140.957 208.6 138.42 208.616 135.379C208.616 132.337 209.63 129.809 211.652 127.796C213.676 125.744 216.214 124.718 219.269 124.718C222.359 124.718 224.869 125.829 226.801 128.052L224.908 129.877C224.24 129.03 223.381 128.349 222.403 127.888C221.425 127.427 220.351 127.198 219.269 127.22C216.997 127.22 215.099 127.979 213.569 129.498C212.042 131.017 211.286 132.977 211.308 135.379C211.308 137.793 212.061 139.749 213.569 141.249C215.077 142.749 216.978 143.512 219.269 143.539C221.656 143.539 223.727 142.541 225.482 140.547L227.399 142.398C226.43 143.555 225.205 144.475 223.82 145.089C222.389 145.727 220.837 146.051 219.269 146.038Z" fill="#DFB979"/>
<path d="M245.723 145.588H242.803L250.535 125.18H253.513L261.245 145.588H258.325L256.347 140.052H247.728L245.723 145.588ZM251.966 128.399L248.615 137.608H255.43L252.081 128.399H251.966Z" fill="#DFB979"/>
<path d="M290.335 140.126C290.335 141.917 289.679 143.355 288.36 144.442C287.044 145.528 285.421 146.061 283.493 146.04C281.869 146.065 280.284 145.543 278.996 144.559C277.678 143.54 276.733 142.118 276.307 140.511L278.826 139.484C278.985 140.066 279.227 140.623 279.543 141.138C279.831 141.614 280.194 142.042 280.617 142.407C281.02 142.755 281.479 143.034 281.976 143.233C282.476 143.433 283.012 143.534 283.55 143.532C284.753 143.532 285.737 143.223 286.5 142.606C286.871 142.313 287.168 141.937 287.366 141.508C287.566 141.08 287.66 140.611 287.646 140.139C287.649 139.728 287.569 139.321 287.404 138.943C287.242 138.565 287.003 138.225 286.698 137.945C286.108 137.355 285.001 136.785 283.38 136.236C281.737 135.645 280.716 135.246 280.315 135.038C278.139 133.935 277.051 132.311 277.051 130.167C277.051 128.666 277.653 127.383 278.856 126.318C280.056 125.254 281.556 124.721 283.35 124.72C284.797 124.685 286.22 125.103 287.415 125.916C288.492 126.606 289.299 127.642 289.706 128.851L287.245 129.879C287.014 129.115 286.533 128.449 285.882 127.983C285.13 127.476 284.237 127.212 283.328 127.229C282.416 127.246 281.534 127.543 280.801 128.079C280.468 128.312 280.196 128.623 280.012 128.984C279.828 129.345 279.735 129.746 279.743 130.151C279.74 130.495 279.815 130.836 279.957 131.149C280.1 131.463 280.309 131.741 280.573 131.967C281.185 132.479 282.512 133.085 284.553 133.785C286.63 134.489 288.113 135.35 289.003 136.369C289.898 137.413 290.376 138.752 290.335 140.126Z" fill="#DFB979"/>
<path d="M311.04 145.588H308.403V125.18H311.04V145.588Z" fill="#DFB979"/>
<path d="M332.685 145.588H330.051V125.18H333.26L343.222 141.055H343.338L343.22 137.123V125.18H345.854V145.588H343.107L332.685 128.942H332.57L332.685 132.876V145.588Z" fill="#DFB979"/>
<path d="M384.367 135.379C384.367 138.399 383.353 140.927 381.329 142.961C379.307 144.995 376.805 146.021 373.83 146.038C370.852 146.038 368.353 145.012 366.328 142.961C364.304 140.909 363.293 138.382 363.293 135.379C363.293 132.357 364.304 129.83 366.328 127.796C368.353 125.762 370.852 124.736 373.83 124.718C376.805 124.718 379.307 125.751 381.329 127.818C383.353 129.855 384.367 132.375 384.367 135.379ZM365.982 135.379C365.982 137.741 366.724 139.689 368.207 141.223C369.69 142.756 371.564 143.528 373.83 143.539C376.063 143.539 377.923 142.769 379.412 141.231C380.9 139.693 381.656 137.745 381.675 135.388C381.675 133.012 380.92 131.063 379.412 129.543C377.903 128.022 376.044 127.253 373.83 127.235C371.597 127.235 369.723 128.005 368.215 129.543C366.707 131.081 365.963 133.026 365.982 135.379Z" fill="#DFB979"/>
<path d="M491.474 45.9999C490.614 45.9999 489.794 45.6374 489.169 44.9956C488.054 43.845 487.905 41.9462 488.826 40.5862L496.962 28.7079L483.462 27.3412C481.995 27.2049 480.778 26.1973 480.311 24.7108C479.835 23.2244 480.222 21.6615 481.328 20.6107L502.326 0.894522C502.916 0.325884 503.704 0 504.523 0C505.394 0 506.213 0.362462 506.835 1.01424C507.944 2.15816 508.09 4.05695 507.172 5.4137L499.036 17.2919L512.529 18.6487C514.006 18.795 515.219 19.8092 515.696 21.2957C516.163 22.7755 515.769 24.345 514.67 25.3859L493.672 45.102C493.091 45.6707 492.303 45.9965 491.474 45.9965V45.9999Z" fill="#DFB979"/>
</svg>
